# xmcd
# Copyright (C) 1995-1998 Ti Kan
#
# Track frame offsets:
#       150
#       9102
#       19147
#       29325
#       43932
#       58150
#       71465
#       80985
#       97155
#       113360
#       127617
#       138912
#       152537
#
# Disc length: 2203 seconds
#
# Revision: 0
# Processed by: cddbd v1.5.2PL0 Copyright (c) Steve Scherf et al.
# Submitted via: CD-Import v1.0
#
DISCID=9f08990d
DTITLE=Miracle Workers - Inside Out
DYEAR=1991
DGENRE=
TTITLE0=Go Now
TTITLE1=That Ain't Me
TTITLE2=Inside Out
TTITLE3=You'll Know Why
TTITLE4=Another Guy
TTITLE5=Love Has No Time
TTITLE6=I'll Walk Away
TTITLE7=5:35
TTITLE8=Tears
TTITLE9=Already Gone
TTITLE10=Hey Little Bird
TTITLE11=Mystery Girl
TTITLE12=One Step Closer To You
EXTD=
EXTT0=
EXTT1=
EXTT2=
EXTT3=
EXTT4=
EXTT5=
EXTT6=
EXTT7=
EXTT8=
EXTT9=
EXTT10=
EXTT11=
EXTT12=
PLAYORDER=
